<?xml version="1.0" standalone="no"?>
<svg viewBox="0 0 200 200" xmlns="http://www.w3.org/2000/svg">
  <path fill="#252323" d="M42.5,-65.3C57.4,-56.5,73.5,-48.7,81.8,-35.8C90.1,-22.9,90.5,-4.9,87.1,11.8C83.6,28.6,76.1,44.1,65.6,57.6C55.1,71.2,41.4,82.9,25.8,87.4C10.1,91.8,-7.6,89,-24.8,84.1C-42,79.2,-58.6,72.2,-70.4,60.1C-82.1,48.1,-88.9,30.9,-90.9,13.4C-92.8,-4,-89.8,-21.8,-81.7,-36.4C-73.7,-51,-60.6,-62.5,-46.1,-71.4C-31.6,-80.4,-15.8,-86.9,-1,-85.3C13.8,-83.7,27.6,-74,42.5,-65.3Z" transform="translate(100 100)" />
</svg>
